<svg xmlns="http://www.w3.org/2000/svg" width="17" height="17" viewBox="0 0 17 17" fill="currentColor">
  <path d="M16.7549 15.5749L12.2549 11.0749C13.1449 9.8949 13.5949 8.4549 13.5949 6.9649C13.5949 5.1149 12.8749 3.3749 11.5749 2.0649C10.2749 0.7649 8.5249 0.0449 6.6849 0.0449C4.8449 0.0449 3.0949 0.7649 1.7949 2.0649C0.4849 3.3749 -0.225098 5.1149 -0.225098 6.9649C-0.225098 8.8049 0.4849 10.5549 1.7949 11.8649C3.0949 13.1649 4.8449 13.8849 6.6849 13.8849C8.1749 13.8849 9.6049 13.4349 10.7949 12.5449L15.2949 17.0449C15.4949 17.2449 15.7549 17.3449 16.0249 17.3449C16.2949 17.3449 16.5549 17.2449 16.7549 17.0449C17.1549 16.6449 17.1549 15.9749 16.7549 15.5749ZM3.2049 10.4549C2.2749 9.5249 1.7649 8.2849 1.7649 6.9649C1.7649 5.6449 2.2749 4.4049 3.2049 3.4749C4.1349 2.5449 5.3749 2.0349 6.6949 2.0349C8.0149 2.0349 9.2549 2.5449 10.1849 3.4749C11.1149 4.4049 11.6249 5.6449 11.6249 6.9649C11.6249 8.2849 11.1149 9.5249 10.1849 10.4549C9.2549 11.3849 8.0149 11.8949 6.6949 11.8949C5.3749 11.8949 4.1349 11.3849 3.2049 10.4549Z"/>
</svg>
